<svg xmlns="http://www.w3.org/2000/svg" width="680" height="430" viewBox="0 0 680 430" font-family="Helvetica, Arial, sans-serif">
<rect width="680" height="430" fill="white"/>
<text x="340" y="24" text-anchor="middle" font-size="15" font-weight="bold">Rayleigh flow: static temperature (Q = 2073 Btu/s)</text>
<line x1="76" y1="46" x2="76" y2="372" stroke="#e0e0e0" stroke-width="1"/>
<text x="76" y="390" text-anchor="middle" font-size="11">0</text>
<line x1="256.8543810414718" y1="46" x2="256.8543810414718" y2="372" stroke="#e0e0e0" stroke-width="1"/>
<text x="256.8543810414718" y="390" text-anchor="middle" font-size="11">1000</text>
<line x1="437.70876208294357" y1="46" x2="437.70876208294357" y2="372" stroke="#e0e0e0" stroke-width="1"/>
<text x="437.70876208294357" y="390" text-anchor="middle" font-size="11">2000</text>
<line x1="618.5631431244153" y1="46" x2="618.5631431244153" y2="372" stroke="#e0e0e0" stroke-width="1"/>
<text x="618.5631431244153" y="390" text-anchor="middle" font-size="11">3000</text>
<line x1="76" y1="341.2057326318268" x2="656" y2="341.2057326318268" stroke="#e0e0e0" stroke-width="1"/>
<text x="68" y="345.2057326318268" text-anchor="end" font-size="11">550</text>
<line x1="76" y1="276.68500826644686" x2="656" y2="276.68500826644686" stroke="#e0e0e0" stroke-width="1"/>
<text x="68" y="280.68500826644686" text-anchor="end" font-size="11">600</text>
<line x1="76" y1="212.1642839010669" x2="656" y2="212.1642839010669" stroke="#e0e0e0" stroke-width="1"/>
<text x="68" y="216.1642839010669" text-anchor="end" font-size="11">650</text>
<line x1="76" y1="147.64355953568702" x2="656" y2="147.64355953568702" stroke="#e0e0e0" stroke-width="1"/>
<text x="68" y="151.64355953568702" text-anchor="end" font-size="11">700</text>
<line x1="76" y1="83.1228351703071" x2="656" y2="83.1228351703071" stroke="#e0e0e0" stroke-width="1"/>
<text x="68" y="87.1228351703071" text-anchor="end" font-size="11">750</text>
<rect x="76" y="46" width="580" height="326" fill="none" stroke="#333" stroke-width="1.2"/>
<text x="366" y="416" text-anchor="middle" font-size="12.5">Axial distance x [in]</text>
<text x="20" y="209" text-anchor="middle" font-size="12.5" transform="rotate(-90 20 209)">Temperature [°R]</text>
<path d="M76.0,354.5 L78.4,353.0 L80.8,351.4 L83.3,349.8 L85.7,348.2 L88.1,346.6 L90.5,345.0 L92.9,343.5 L95.3,341.9 L97.8,340.3 L100.2,338.7 L102.6,337.2 L105.0,335.6 L107.4,334.0 L109.8,332.4 L112.3,330.9 L114.7,329.3 L117.1,327.7 L119.5,326.2 L121.9,324.6 L124.3,323.0 L126.7,321.5 L129.2,319.9 L131.6,318.4 L134.0,316.8 L136.4,315.2 L138.8,313.7 L141.3,312.1 L143.7,310.6 L146.1,309.0 L148.5,307.5 L150.9,305.9 L153.3,304.4 L155.8,302.8 L158.2,301.3 L160.6,299.7 L163.0,298.2 L165.4,296.6 L167.8,295.1 L170.3,293.6 L172.7,292.0 L175.1,290.5 L177.5,288.9 L179.9,287.4 L182.3,285.9 L184.8,284.3 L187.2,282.8 L189.6,281.3 L192.0,279.8 L194.4,278.2 L196.8,276.7 L199.3,275.2 L201.7,273.7 L204.1,272.1 L206.5,270.6 L208.9,269.1 L211.3,267.6 L213.7,266.1 L216.2,264.5 L218.6,263.0 L221.0,261.5 L223.4,260.0 L225.8,258.5 L228.3,257.0 L230.7,255.5 L233.1,254.0 L235.5,252.5 L237.9,251.0 L240.3,249.5 L242.7,248.0 L245.2,246.5 L247.6,245.0 L250.0,243.5 L252.4,242.0 L254.8,240.5 L257.3,239.1 L259.7,237.6 L262.1,236.1 L264.5,234.6 L266.9,233.1 L269.3,231.7 L271.8,230.2 L274.2,228.7 L276.6,227.2 L279.0,225.8 L281.4,224.3 L283.8,222.8 L286.3,221.4 L288.7,219.9 L291.1,218.5 L293.5,217.0 L295.9,215.5 L298.3,214.1 L300.8,212.6 L303.2,211.2 L305.6,209.7 L308.0,208.3 L310.4,206.9 L312.8,205.4 L315.3,204.0 L317.7,202.5 L320.1,201.1 L322.5,199.7 L324.9,198.2 L327.3,196.8 L329.8,195.4 L332.2,194.0 L334.6,192.6 L337.0,191.1 L339.4,189.7 L341.8,188.3 L344.3,186.9 L346.7,185.5 L349.1,184.1 L351.5,182.7 L353.9,181.3 L356.3,179.9 L358.8,178.5 L361.2,177.1 L363.6,175.7 L366.0,174.3 L368.4,173.0 L370.8,171.6 L373.3,170.2 L375.7,168.8 L378.1,167.5 L380.5,166.1 L382.9,164.7 L385.3,163.4 L387.8,162.0 L390.2,160.7 L392.6,159.3 L395.0,158.0 L397.4,156.6 L399.8,155.3 L402.2,153.9 L404.7,152.6 L407.1,151.3 L409.5,149.9 L411.9,148.6 L414.3,147.3 L416.8,146.0 L419.2,144.7 L421.6,143.4 L424.0,142.1 L426.4,140.8 L428.8,139.5 L431.2,138.2 L433.7,136.9 L436.1,135.6 L438.5,134.3 L440.9,133.0 L443.3,131.8 L445.8,130.5 L448.2,129.2 L450.6,128.0 L453.0,126.7 L455.4,125.5 L457.8,124.2 L460.3,123.0 L462.7,121.8 L465.1,120.6 L467.5,119.3 L469.9,118.1 L472.3,116.9 L474.8,115.7 L477.2,114.5 L479.6,113.3 L482.0,112.1 L484.4,110.9 L486.8,109.8 L489.3,108.6 L491.7,107.4 L494.1,106.3 L496.5,105.1 L498.9,104.0 L501.3,102.9 L503.7,101.7 L506.2,100.6 L508.6,99.5 L511.0,98.4 L513.4,97.3 L515.8,96.2 L518.3,95.2 L520.7,94.1 L523.1,93.0 L525.5,92.0 L527.9,90.9 L530.3,89.9 L532.8,88.9 L535.2,87.9 L537.6,86.9 L540.0,85.9 L542.4,84.9 L544.8,83.9 L547.3,83.0 L549.7,82.0 L552.1,81.1 L554.5,80.2 L556.9,79.3 L559.3,78.4 L561.8,77.5 L564.2,76.7 L566.6,75.8 L569.0,75.0 L571.4,74.2 L573.8,73.4 L576.3,72.6 L578.7,71.9 L581.1,71.2 L583.5,70.5 L585.9,69.8 L588.3,69.1 L590.8,68.5 L593.2,67.9 L595.6,67.3 L598.0,66.8 L600.4,66.2 L602.8,65.8 L605.2,65.3 L607.7,64.9 L610.1,64.5 L612.5,64.2 L614.9,63.9 L617.3,63.7 L619.7,63.6 L622.2,63.5 L624.6,63.5 L627.0,63.5 L629.4,63.7 L631.8,63.9 L634.3,64.3 L636.7,64.8 L639.1,65.5 L641.5,66.4 L643.9,67.5 L646.3,69.0 L648.8,71.0 L651.2,73.7 L653.6,77.9" fill="none" stroke="#000000" stroke-width="1.8"/>
<circle cx="76" cy="354.5357142857143" r="3.4" fill="none" stroke="#1f5fa8" stroke-width="1.4"/>
<circle cx="79.57038122741005" cy="348.71683014033454" r="3.4" fill="none" stroke="#1f5fa8" stroke-width="1.4"/>
<circle cx="90.19361027440547" cy="339.56126508366265" r="3.4" fill="none" stroke="#1f5fa8" stroke-width="1.4"/>
<circle cx="107.60810798537331" cy="326.17655802617605" r="3.4" fill="none" stroke="#1f5fa8" stroke-width="1.4"/>
<circle cx="131.38507163126525" cy="308.9709847666068" r="3.4" fill="none" stroke="#1f5fa8" stroke-width="1.4"/>
<circle cx="160.9390334559012" cy="288.4723595906094" r="3.4" fill="none" stroke="#1f5fa8" stroke-width="1.4"/>
<circle cx="195.5422768351828" cy="265.3143751852508" r="3.4" fill="none" stroke="#1f5fa8" stroke-width="1.4"/>
<circle cx="234.3427550755314" cy="240.2201718639817" r="3.4" fill="none" stroke="#1f5fa8" stroke-width="1.4"/>
<circle cx="276.3850716312652" cy="213.98354017741815" r="3.4" fill="none" stroke="#1f5fa8" stroke-width="1.4"/>
<circle cx="320.634005138333" cy="187.44821609951774" r="3.4" fill="none" stroke="#1f5fa8" stroke-width="1.4"/>
<circle cx="365.9999999999999" cy="161.48576803029644" r="3.4" fill="none" stroke="#1f5fa8" stroke-width="1.4"/>
<circle cx="411.3659948616668" cy="136.97259456395642" r="3.4" fill="none" stroke="#1f5fa8" stroke-width="1.4"/>
<circle cx="455.61492836873475" cy="114.76654039218721" r="3.4" fill="none" stroke="#1f5fa8" stroke-width="1.4"/>
<circle cx="497.65724492446856" cy="95.68356735201775" r="3.4" fill="none" stroke="#1f5fa8" stroke-width="1.4"/>
<circle cx="536.4577231648171" cy="80.4747081446771" r="3.4" fill="none" stroke="#1f5fa8" stroke-width="1.4"/>
<circle cx="571.0609665440986" cy="69.8029094480911" r="3.4" fill="none" stroke="#1f5fa8" stroke-width="1.4"/>
<circle cx="600.6149283687347" cy="64.21723544692583" r="3.4" fill="none" stroke="#1f5fa8" stroke-width="1.4"/>
<circle cx="624.3918920146267" cy="64.11252091020623" r="3.4" fill="none" stroke="#1f5fa8" stroke-width="1.4"/>
<circle cx="641.8063897255946" cy="69.60231059221422" r="3.4" fill="none" stroke="#1f5fa8" stroke-width="1.4"/>
<circle cx="652.42961877259" cy="90.89134541350415" r="3.4" fill="none" stroke="#1f5fa8" stroke-width="1.4"/>
<circle cx="656" cy="90.89177829454832" r="3.4" fill="none" stroke="#1f5fa8" stroke-width="1.4"/>
<rect x="84" y="54" width="229.60000000000002" height="46" fill="white" fill-opacity="0.88" stroke="#999" stroke-width="0.8"/>
<line x1="92" y1="64" x2="114" y2="64" stroke="#000000" stroke-width="1.8"/>
<text x="120" y="68" font-size="11">Analytical (RK4)</text>
<circle cx="103" cy="82" r="3.4" fill="none" stroke="#1f5fa8" stroke-width="1.4"/>
<text x="120" y="86" font-size="11">Numerical, 21 nodes clustered</text>
</svg>