<svg xmlns="http://www.w3.org/2000/svg" width="680" height="430" viewBox="0 0 680 430" font-family="Helvetica, Arial, sans-serif">
<rect width="680" height="430" fill="white"/>
<text x="340" y="24" text-anchor="middle" font-size="15" font-weight="bold">Nozzle Mach number: solver vs analytical references</text>
<line x1="76" y1="46" x2="76" y2="372" stroke="#e0e0e0" stroke-width="1"/>
<text x="76" y="390" text-anchor="middle" font-size="11">0.00</text>
<line x1="222.93960275638426" y1="46" x2="222.93960275638426" y2="372" stroke="#e0e0e0" stroke-width="1"/>
<text x="222.93960275638426" y="390" text-anchor="middle" font-size="11">0.05</text>
<line x1="369.8792055127685" y1="46" x2="369.8792055127685" y2="372" stroke="#e0e0e0" stroke-width="1"/>
<text x="369.8792055127685" y="390" text-anchor="middle" font-size="11">0.10</text>
<line x1="516.8188082691529" y1="46" x2="516.8188082691529" y2="372" stroke="#e0e0e0" stroke-width="1"/>
<text x="516.8188082691529" y="390" text-anchor="middle" font-size="11">0.15</text>
<line x1="76" y1="371.83685337925766" x2="656" y2="371.83685337925766" stroke="#e0e0e0" stroke-width="1"/>
<text x="68" y="375.83685337925766" text-anchor="end" font-size="11">0.0</text>
<line x1="76" y1="314.5946626493459" x2="656" y2="314.5946626493459" stroke="#e0e0e0" stroke-width="1"/>
<text x="68" y="318.5946626493459" text-anchor="end" font-size="11">0.5</text>
<line x1="76" y1="257.35247191943404" x2="656" y2="257.35247191943404" stroke="#e0e0e0" stroke-width="1"/>
<text x="68" y="261.35247191943404" text-anchor="end" font-size="11">1.0</text>
<line x1="76" y1="200.11028118952223" x2="656" y2="200.11028118952223" stroke="#e0e0e0" stroke-width="1"/>
<text x="68" y="204.11028118952223" text-anchor="end" font-size="11">1.5</text>
<line x1="76" y1="142.86809045961044" x2="656" y2="142.86809045961044" stroke="#e0e0e0" stroke-width="1"/>
<text x="68" y="146.86809045961044" text-anchor="end" font-size="11">2.0</text>
<line x1="76" y1="85.62589972969863" x2="656" y2="85.62589972969863" stroke="#e0e0e0" stroke-width="1"/>
<text x="68" y="89.62589972969863" text-anchor="end" font-size="11">2.5</text>
<rect x="76" y="46" width="580" height="326" fill="none" stroke="#333" stroke-width="1.2"/>
<text x="366" y="416" text-anchor="middle" font-size="12.5">axial position z [m]</text>
<text x="20" y="209" text-anchor="middle" font-size="12.5" transform="rotate(-90 20 209)">M</text>
<path d="M76.0,354.5 L222.9,354.5 L369.9,354.5 L393.7,349.5 L414.4,342.9 L431.9,334.4 L446.2,323.8 L457.4,310.8 L465.3,295.3 L470.1,277.3 L471.7,257.4 L473.2,243.1 L477.8,228.4 L485.4,213.3 L496.1,198.0 L509.8,182.8 L526.5,167.7 L546.3,152.8 L569.2,138.3 L595.1,124.1 L624.0,110.4 L656.0,97.1" fill="none" stroke="#000000" stroke-width="1.8"/>
<polygon points="222.93960275638426,350.1264268732291 219.53960275638426,356.92642687322905 226.33960275638427,356.92642687322905" fill="none" stroke="#1e8449" stroke-width="1.4"/>
<polygon points="369.8792055127685,350.140846033515 366.47920551276854,356.94084603351496 373.2792055127685,356.94084603351496" fill="none" stroke="#1e8449" stroke-width="1.4"/>
<polygon points="393.73925820835024,344.7479026269746 390.33925820835026,351.5479026269746 397.1392582083502,351.5479026269746" fill="none" stroke="#1e8449" stroke-width="1.4"/>
<polygon points="414.4165991082286,337.7202597253825 411.0165991082286,344.52025972538246 417.81659910822856,344.52025972538246" fill="none" stroke="#1e8449" stroke-width="1.4"/>
<polygon points="431.9141670044589,328.646869607648 428.5141670044589,335.44686960764795 435.31416700445885,335.44686960764795" fill="none" stroke="#1e8449" stroke-width="1.4"/>
<polygon points="446.23196189704095,317.0547594914463 442.83196189704097,323.85475949144626 449.6319618970409,323.85475949144626" fill="none" stroke="#1e8449" stroke-width="1.4"/>
<polygon points="457.36704499391976,302.3039355934721 453.9670449939198,309.10393559347204 460.76704499391974,309.10393559347204" fill="none" stroke="#1e8449" stroke-width="1.4"/>
<polygon points="485.3913660316174,203.08906462854412 481.9913660316174,209.88906462854413 488.7913660316174,209.88906462854413" fill="none" stroke="#1e8449" stroke-width="1.4"/>
<polygon points="496.0533036076206,189.40549812396696 492.6533036076206,196.20549812396698 499.45330360762057,196.20549812396698" fill="none" stroke="#1e8449" stroke-width="1.4"/>
<polygon points="509.7657073368464,175.26464822672486 506.3657073368464,182.06464822672487 513.1657073368464,182.06464822672487" fill="none" stroke="#1e8449" stroke-width="1.4"/>
<polygon points="526.5197608431292,161.0303590839662 523.1197608431293,167.83035908396621 529.9197608431292,167.83035908396621" fill="none" stroke="#1e8449" stroke-width="1.4"/>
<polygon points="546.3242805026348,146.92242201156546 542.9242805026348,153.72242201156547 549.7242805026348,153.72242201156547" fill="none" stroke="#1e8449" stroke-width="1.4"/>
<polygon points="569.1733887312525,133.08118271113534 565.7733887312526,139.88118271113535 572.5733887312525,139.88118271113535" fill="none" stroke="#1e8449" stroke-width="1.4"/>
<polygon points="595.0700243210377,119.59808455503153 591.6700243210378,126.39808455503155 598.4700243210377,126.39808455503155" fill="none" stroke="#1e8449" stroke-width="1.4"/>
<polygon points="624.0112484799351,106.52967429586849 620.6112484799352,113.3296742958685 627.4112484799351,113.3296742958685" fill="none" stroke="#1e8449" stroke-width="1.4"/>
<polygon points="656,93.91028598318408 652.6,100.7102859831841 659.4,100.7102859831841" fill="none" stroke="#1e8449" stroke-width="1.4"/>
<circle cx="76" cy="353.5209711073128" r="3.4" fill="none" stroke="#1f5fa8" stroke-width="1.4"/>
<circle cx="222.93960275638426" cy="353.53527230285283" r="3.4" fill="none" stroke="#1f5fa8" stroke-width="1.4"/>
<circle cx="369.8792055127685" cy="353.5420906939028" r="3.4" fill="none" stroke="#1f5fa8" stroke-width="1.4"/>
<circle cx="393.73925820835024" cy="348.16171609978915" r="3.4" fill="none" stroke="#1f5fa8" stroke-width="1.4"/>
<circle cx="414.4165991082286" cy="341.1542423006327" r="3.4" fill="none" stroke="#1f5fa8" stroke-width="1.4"/>
<circle cx="431.9141670044589" cy="332.1507443681222" r="3.4" fill="none" stroke="#1f5fa8" stroke-width="1.4"/>
<circle cx="446.23196189704095" cy="320.7837266925183" r="3.4" fill="none" stroke="#1f5fa8" stroke-width="1.4"/>
<circle cx="457.36704499391976" cy="306.7860605179129" r="3.4" fill="none" stroke="#1f5fa8" stroke-width="1.4"/>
<circle cx="465.3194162950953" cy="290.1591118531528" r="3.4" fill="none" stroke="#1f5fa8" stroke-width="1.4"/>
<circle cx="470.0920145926226" cy="271.5378109018918" r="3.4" fill="none" stroke="#1f5fa8" stroke-width="1.4"/>
<circle cx="471.68190109444674" cy="253.25010113176273" r="3.4" fill="none" stroke="#1f5fa8" stroke-width="1.4"/>
<circle cx="473.20419537900284" cy="236.23645218708646" r="3.4" fill="none" stroke="#1f5fa8" stroke-width="1.4"/>
<circle cx="477.7740170247264" cy="219.0299807434415" r="3.4" fill="none" stroke="#1f5fa8" stroke-width="1.4"/>
<circle cx="485.3913660316174" cy="201.78492125170354" r="3.4" fill="none" stroke="#1f5fa8" stroke-width="1.4"/>
<circle cx="496.0533036076206" cy="184.64932375888606" r="3.4" fill="none" stroke="#1f5fa8" stroke-width="1.4"/>
<circle cx="509.7657073368464" cy="167.7878349670412" r="3.4" fill="none" stroke="#1f5fa8" stroke-width="1.4"/>
<circle cx="526.5197608431292" cy="151.35889165720684" r="3.4" fill="none" stroke="#1f5fa8" stroke-width="1.4"/>
<circle cx="546.3242805026348" cy="135.49295327707767" r="3.4" fill="none" stroke="#1f5fa8" stroke-width="1.4"/>
<circle cx="569.1733887312525" cy="120.28998409970563" r="3.4" fill="none" stroke="#1f5fa8" stroke-width="1.4"/>
<circle cx="595.0700243210377" cy="105.78063261347535" r="3.4" fill="none" stroke="#1f5fa8" stroke-width="1.4"/>
<circle cx="624.0112484799351" cy="92.52629473529197" r="3.4" fill="none" stroke="#1f5fa8" stroke-width="1.4"/>
<circle cx="656" cy="63.464285714285666" r="3.4" fill="none" stroke="#1f5fa8" stroke-width="1.4"/>
<rect x="84" y="54" width="306.40000000000003" height="64" fill="white" fill-opacity="0.88" stroke="#999" stroke-width="0.8"/>
<line x1="92" y1="64" x2="114" y2="64" stroke="#000000" stroke-width="1.8"/>
<text x="120" y="68" font-size="11">frozen-gamma isentropic (geometric A/At)</text>
<polygon points="103,78.6 99.6,85.4 106.4,85.4" fill="none" stroke="#1e8449" stroke-width="1.4"/>
<text x="120" y="86" font-size="11">RK4 ODE, friction + wall heat (both legs)</text>
<circle cx="103" cy="100" r="3.4" fill="none" stroke="#1f5fa8" stroke-width="1.4"/>
<text x="120" y="104" font-size="11">solver stations</text>
</svg>