<svg xmlns="http://www.w3.org/2000/svg" width="680" height="430" viewBox="0 0 680 430" font-family="Helvetica, Arial, sans-serif">
<rect width="680" height="430" fill="white"/>
<text x="340" y="24" text-anchor="middle" font-size="15" font-weight="bold">Nozzle static temperature: solver vs analytical references</text>
<line x1="76" y1="46" x2="76" y2="372" stroke="#e0e0e0" stroke-width="1"/>
<text x="76" y="390" text-anchor="middle" font-size="11">0.00</text>
<line x1="218.63160224472634" y1="46" x2="218.63160224472634" y2="372" stroke="#e0e0e0" stroke-width="1"/>
<text x="218.63160224472634" y="390" text-anchor="middle" font-size="11">0.05</text>
<line x1="361.2632044894527" y1="46" x2="361.2632044894527" y2="372" stroke="#e0e0e0" stroke-width="1"/>
<text x="361.2632044894527" y="390" text-anchor="middle" font-size="11">0.10</text>
<line x1="503.89480673417904" y1="46" x2="503.89480673417904" y2="372" stroke="#e0e0e0" stroke-width="1"/>
<text x="503.89480673417904" y="390" text-anchor="middle" font-size="11">0.15</text>
<line x1="646.5264089789054" y1="46" x2="646.5264089789054" y2="372" stroke="#e0e0e0" stroke-width="1"/>
<text x="646.5264089789054" y="390" text-anchor="middle" font-size="11">0.20</text>
<line x1="76" y1="314.6768228569572" x2="656" y2="314.6768228569572" stroke="#e0e0e0" stroke-width="1"/>
<text x="68" y="318.6768228569572" text-anchor="end" font-size="11">2400</text>
<line x1="76" y1="251.27746445805835" x2="656" y2="251.27746445805835" stroke="#e0e0e0" stroke-width="1"/>
<text x="68" y="255.27746445805835" text-anchor="end" font-size="11">2600</text>
<line x1="76" y1="187.87810605915953" x2="656" y2="187.87810605915953" stroke="#e0e0e0" stroke-width="1"/>
<text x="68" y="191.87810605915953" text-anchor="end" font-size="11">2800</text>
<line x1="76" y1="124.47874766026075" x2="656" y2="124.47874766026075" stroke="#e0e0e0" stroke-width="1"/>
<text x="68" y="128.47874766026075" text-anchor="end" font-size="11">3000</text>
<line x1="76" y1="61.07938926136188" x2="656" y2="61.07938926136188" stroke="#e0e0e0" stroke-width="1"/>
<text x="68" y="65.07938926136188" text-anchor="end" font-size="11">3200</text>
<rect x="76" y="46" width="580" height="326" fill="none" stroke="#333" stroke-width="1.2"/>
<text x="366" y="416" text-anchor="middle" font-size="12.5">axial position z [m]</text>
<text x="20" y="209" text-anchor="middle" font-size="12.5" transform="rotate(-90 20 209)">T [K]</text>
<path d="M76.0,63.5 L218.6,63.5 L361.3,63.5 L372.8,63.9 L384.4,64.4 L394.5,65.1 L404.5,66.1 L413.0,67.2 L421.5,68.8 L428.4,70.6 L435.4,73.2 L440.8,76.0 L446.2,79.9 L450.0,84.0 L453.9,89.9 L456.2,95.3 L458.5,103.9 L459.3,108.9 L460.1,122.4 L460.8,132.6 L461.6,137.1 L463.8,146.6 L466.0,153.7 L469.7,163.5 L473.4,171.8 L478.6,182.0 L483.7,191.1 L490.4,201.7 L497.0,211.3 L505.2,222.0 L513.3,231.9 L522.9,242.7 L532.5,252.7 L543.6,263.5 L554.7,273.4 L567.3,284.0 L579.9,293.8 L593.9,304.1 L607.9,313.7 L623.5,323.6 L639.0,332.9 L656.0,342.5" fill="none" stroke="#000000" stroke-width="1.8"/>
<polygon points="218.63160224472634,61.09346193993574 215.23160224472633,67.89346193993575 222.03160224472634,67.89346193993575" fill="none" stroke="#1e8449" stroke-width="1.4"/>
<polygon points="361.2632044894527,62.97829577686205 357.8632044894527,69.77829577686205 364.66320448945265,69.77829577686205" fill="none" stroke="#1e8449" stroke-width="1.4"/>
<polygon points="372.8420379596795,63.57257313005838 369.4420379596795,70.37257313005838 376.24203795967946,70.37257313005838" fill="none" stroke="#1e8449" stroke-width="1.4"/>
<polygon points="384.4237240619513,64.34455113526062 381.0237240619513,71.14455113526063 387.8237240619513,71.14455113526063" fill="none" stroke="#1e8449" stroke-width="1.4"/>
<polygon points="394.45928359589027,65.22533500436978 391.0592835958903,72.0253350043698 397.85928359589025,72.0253350043698" fill="none" stroke="#1e8449" stroke-width="1.4"/>
<polygon points="404.4948431298291,66.40238316263228 401.09484312982914,73.20238316263229 407.8948431298291,73.20238316263229" fill="none" stroke="#1e8449" stroke-width="1.4"/>
<polygon points="412.9871287274802,67.74681078336587 409.5871287274802,74.54681078336588 416.38712872748016,74.54681078336588" fill="none" stroke="#1e8449" stroke-width="1.4"/>
<polygon points="421.4794143251312,69.58383495928231 418.0794143251312,76.38383495928232 424.87941432513117,76.38383495928232" fill="none" stroke="#1e8449" stroke-width="1.4"/>
<polygon points="428.42842598649423,71.65227574032272 425.02842598649426,78.45227574032273 431.8284259864942,78.45227574032273" fill="none" stroke="#1e8449" stroke-width="1.4"/>
<polygon points="435.37743764785733,74.53339975269304 431.97743764785736,81.33339975269305 438.7774376478573,81.33339975269305" fill="none" stroke="#1e8449" stroke-width="1.4"/>
<polygon points="440.7831753729324,77.67835588446363 437.38317537293244,84.47835588446364 444.1831753729324,84.47835588446364" fill="none" stroke="#1e8449" stroke-width="1.4"/>
<polygon points="446.18606046596267,82.17511306417813 442.7860604659627,88.97511306417815 449.58606046596265,88.97511306417815" fill="none" stroke="#1e8449" stroke-width="1.4"/>
<polygon points="450.04567162270496,86.84438623110273 446.645671622705,93.64438623110274 453.44567162270494,93.64438623110274" fill="none" stroke="#1e8449" stroke-width="1.4"/>
<polygon points="453.9052827794473,93.96599404723472 450.5052827794473,100.76599404723473 457.3052827794473,100.76599404723473" fill="none" stroke="#1e8449" stroke-width="1.4"/>
<polygon points="456.2216199999016,100.92170776694329 452.8216199999016,107.7217077669433 459.62161999990155,107.7217077669433" fill="none" stroke="#1e8449" stroke-width="1.4"/>
<polygon points="465.99473738571027,156.28086791895063 462.5947373857103,163.08086791895064 469.39473738571024,163.08086791895064" fill="none" stroke="#1e8449" stroke-width="1.4"/>
<polygon points="469.69174851589355,165.6702041464798 466.2917485158936,172.4702041464798 473.0917485158935,172.4702041464798" fill="none" stroke="#1e8449" stroke-width="1.4"/>
<polygon points="473.38875964607695,173.75024377176177 469.98875964607697,180.55024377176179 476.7887596460769,180.55024377176179" fill="none" stroke="#1e8449" stroke-width="1.4"/>
<polygon points="478.5634341755155,183.71758187819324 475.16343417551553,190.51758187819325 481.9634341755155,190.51758187819325" fill="none" stroke="#1e8449" stroke-width="1.4"/>
<polygon points="483.73810870495424,192.6209239131215 480.33810870495427,199.4209239131215 487.1381087049542,199.4209239131215" fill="none" stroke="#1e8449" stroke-width="1.4"/>
<polygon points="490.3932992656932,202.96588506666228 486.9932992656932,209.7658850666623 493.7932992656932,209.7658850666623" fill="none" stroke="#1e8449" stroke-width="1.4"/>
<polygon points="497.0484898264321,212.3827652546249 493.6484898264321,219.1827652546249 500.4484898264321,219.1827652546249" fill="none" stroke="#1e8449" stroke-width="1.4"/>
<polygon points="505.17849115438145,222.92560956422267 501.77849115438147,229.72560956422268 508.5784911543814,229.72560956422268" fill="none" stroke="#1e8449" stroke-width="1.4"/>
<polygon points="513.3113451143759,232.62196343367273 509.9113451143759,239.42196343367274 516.7113451143758,239.42196343367274" fill="none" stroke="#1e8449" stroke-width="1.4"/>
<polygon points="522.9218624736254,243.19954254063356 519.5218624736254,249.99954254063357 526.3218624736254,249.99954254063357" fill="none" stroke="#1e8449" stroke-width="1.4"/>
<polygon points="532.53523246492,252.9861520355199 529.13523246492,259.7861520355199 535.93523246492,259.7861520355199" fill="none" stroke="#1e8449" stroke-width="1.4"/>
<polygon points="543.6262658554699,263.4590632490722 540.2262658554699,270.25906324907214 547.0262658554699,270.25906324907214" fill="none" stroke="#1e8449" stroke-width="1.4"/>
<polygon points="554.7144466139749,273.1863374962953 551.314446613975,279.9863374962953 558.1144466139749,279.9863374962953" fill="none" stroke="#1e8449" stroke-width="1.4"/>
<polygon points="567.2831434037803,283.44236025842713 563.8831434037803,290.2423602584271 570.6831434037803,290.2423602584271" fill="none" stroke="#1e8449" stroke-width="1.4"/>
<polygon points="579.8518401935855,292.99458947235655 576.4518401935856,299.7945894723565 583.2518401935855,299.7945894723565" fill="none" stroke="#1e8449" stroke-width="1.4"/>
<polygon points="593.8982003826461,302.9502404275211 590.4982003826461,309.7502404275211 597.2982003826461,309.7502404275211" fill="none" stroke="#1e8449" stroke-width="1.4"/>
<polygon points="607.9445605717068,312.2427738820961 604.5445605717068,319.04277388209607 611.3445605717068,319.04277388209607" fill="none" stroke="#1e8449" stroke-width="1.4"/>
<polygon points="623.4714367920677,321.8393891217995 620.0714367920677,328.63938912179947 626.8714367920677,328.63938912179947" fill="none" stroke="#1e8449" stroke-width="1.4"/>
<polygon points="638.9954603803837,330.8135011755965 635.5954603803838,337.61350117559647 642.3954603803837,337.61350117559647" fill="none" stroke="#1e8449" stroke-width="1.4"/>
<polygon points="656,340.01444916695596 652.6,346.8144491669559 659.4,346.8144491669559" fill="none" stroke="#1e8449" stroke-width="1.4"/>
<circle cx="76" cy="63.555928608731165" r="3.4" fill="none" stroke="#1f5fa8" stroke-width="1.4"/>
<circle cx="218.63160224472634" cy="65.43014165951138" r="3.4" fill="none" stroke="#1f5fa8" stroke-width="1.4"/>
<circle cx="361.2632044894527" cy="66.45508371835291" r="3.4" fill="none" stroke="#1f5fa8" stroke-width="1.4"/>
<circle cx="372.8420379596795" cy="67.05297155454178" r="3.4" fill="none" stroke="#1f5fa8" stroke-width="1.4"/>
<circle cx="384.4237240619513" cy="67.81734078245336" r="3.4" fill="none" stroke="#1f5fa8" stroke-width="1.4"/>
<circle cx="394.45928359589027" cy="68.70082601469204" r="3.4" fill="none" stroke="#1f5fa8" stroke-width="1.4"/>
<circle cx="404.4948431298291" cy="69.86702144399942" r="3.4" fill="none" stroke="#1f5fa8" stroke-width="1.4"/>
<circle cx="412.9871287274802" cy="71.21160761314678" r="3.4" fill="none" stroke="#1f5fa8" stroke-width="1.4"/>
<circle cx="421.4794143251312" cy="73.0291142118873" r="3.4" fill="none" stroke="#1f5fa8" stroke-width="1.4"/>
<circle cx="428.42842598649423" cy="75.0891553503011" r="3.4" fill="none" stroke="#1f5fa8" stroke-width="1.4"/>
<circle cx="435.37743764785733" cy="77.91834650643648" r="3.4" fill="none" stroke="#1f5fa8" stroke-width="1.4"/>
<circle cx="440.7831753729324" cy="81.02308674353884" r="3.4" fill="none" stroke="#1f5fa8" stroke-width="1.4"/>
<circle cx="446.18606046596267" cy="85.33060082949709" r="3.4" fill="none" stroke="#1f5fa8" stroke-width="1.4"/>
<circle cx="450.04567162270496" cy="89.83115771220014" r="3.4" fill="none" stroke="#1f5fa8" stroke-width="1.4"/>
<circle cx="453.9052827794473" cy="96.1078794282634" r="3.4" fill="none" stroke="#1f5fa8" stroke-width="1.4"/>
<circle cx="456.2216199999016" cy="102.21203321725352" r="3.4" fill="none" stroke="#1f5fa8" stroke-width="1.4"/>
<circle cx="458.537957220356" cy="110.67944883768655" r="3.4" fill="none" stroke="#1f5fa8" stroke-width="1.4"/>
<circle cx="459.3110205045224" cy="117.92949126446516" r="3.4" fill="none" stroke="#1f5fa8" stroke-width="1.4"/>
<circle cx="460.081231156644" cy="127.41463437031956" r="3.4" fill="none" stroke="#1f5fa8" stroke-width="1.4"/>
<circle cx="460.8200628562716" cy="135.19267643824216" r="3.4" fill="none" stroke="#1f5fa8" stroke-width="1.4"/>
<circle cx="461.5588945558993" cy="144.71595357760103" r="3.4" fill="none" stroke="#1f5fa8" stroke-width="1.4"/>
<circle cx="463.77824228682726" cy="152.9617893823418" r="3.4" fill="none" stroke="#1f5fa8" stroke-width="1.4"/>
<circle cx="465.99473738571027" cy="163.34661220437795" r="3.4" fill="none" stroke="#1f5fa8" stroke-width="1.4"/>
<circle cx="469.69174851589355" cy="172.0730332070689" r="3.4" fill="none" stroke="#1f5fa8" stroke-width="1.4"/>
<circle cx="473.38875964607695" cy="183.28074267066964" r="3.4" fill="none" stroke="#1f5fa8" stroke-width="1.4"/>
<circle cx="478.5634341755155" cy="192.38558408808012" r="3.4" fill="none" stroke="#1f5fa8" stroke-width="1.4"/>
<circle cx="483.73810870495424" cy="204.24886064406942" r="3.4" fill="none" stroke="#1f5fa8" stroke-width="1.4"/>
<circle cx="490.3932992656932" cy="213.55701750778272" r="3.4" fill="none" stroke="#1f5fa8" stroke-width="1.4"/>
<circle cx="497.0484898264321" cy="225.85046717144849" r="3.4" fill="none" stroke="#1f5fa8" stroke-width="1.4"/>
<circle cx="505.17849115438145" cy="235.17695776327918" r="3.4" fill="none" stroke="#1f5fa8" stroke-width="1.4"/>
<circle cx="513.3113451143759" cy="247.66776790213189" r="3.4" fill="none" stroke="#1f5fa8" stroke-width="1.4"/>
<circle cx="522.9218624736254" cy="256.8468050560682" r="3.4" fill="none" stroke="#1f5fa8" stroke-width="1.4"/>
<circle cx="532.53523246492" cy="269.32473028198723" r="3.4" fill="none" stroke="#1f5fa8" stroke-width="1.4"/>
<circle cx="543.6262658554699" cy="278.22729897886154" r="3.4" fill="none" stroke="#1f5fa8" stroke-width="1.4"/>
<circle cx="554.7144466139749" cy="290.51414572444844" r="3.4" fill="none" stroke="#1f5fa8" stroke-width="1.4"/>
<circle cx="567.2831434037803" cy="299.04879037800254" r="3.4" fill="none" stroke="#1f5fa8" stroke-width="1.4"/>
<circle cx="579.8518401935855" cy="311.0105525050955" r="3.4" fill="none" stroke="#1f5fa8" stroke-width="1.4"/>
<circle cx="593.8982003826461" cy="319.1179848179517" r="3.4" fill="none" stroke="#1f5fa8" stroke-width="1.4"/>
<circle cx="607.9445605717068" cy="330.6585966689914" r="3.4" fill="none" stroke="#1f5fa8" stroke-width="1.4"/>
<circle cx="623.4714367920677" cy="338.30629647527235" r="3.4" fill="none" stroke="#1f5fa8" stroke-width="1.4"/>
<circle cx="638.9954603803837" cy="349.494037443365" r="3.4" fill="none" stroke="#1f5fa8" stroke-width="1.4"/>
<circle cx="656" cy="354.5357142857143" r="3.4" fill="none" stroke="#1f5fa8" stroke-width="1.4"/>
<rect x="341.59999999999997" y="54" width="306.40000000000003" height="64" fill="white" fill-opacity="0.88" stroke="#999" stroke-width="0.8"/>
<line x1="349.59999999999997" y1="64" x2="371.59999999999997" y2="64" stroke="#000000" stroke-width="1.8"/>
<text x="377.59999999999997" y="68" font-size="11">frozen-gamma isentropic (geometric A/At)</text>
<polygon points="360.59999999999997,78.6 357.2,85.4 363.99999999999994,85.4" fill="none" stroke="#1e8449" stroke-width="1.4"/>
<text x="377.59999999999997" y="86" font-size="11">RK4 ODE, friction + wall heat (both legs)</text>
<circle cx="360.59999999999997" cy="100" r="3.4" fill="none" stroke="#1f5fa8" stroke-width="1.4"/>
<text x="377.59999999999997" y="104" font-size="11">solver stations</text>
</svg>